<svg id="visual" viewBox="0 0 900 600" width="900" height="600" xmlns="http://www.w3.org/2000/svg" xmlns:xlink="http://www.w3.org/1999/xlink" version="1.1"><rect x="0" y="0" width="900" height="600" fill="#55cdb3"></rect><path d="M0 361L21.5 373.3C43 385.7 86 410.3 128.8 417C171.7 423.7 214.3 412.3 257.2 399.8C300 387.3 343 373.7 385.8 367.2C428.7 360.7 471.3 361.3 514.2 365.3C557 369.3 600 376.7 642.8 384.8C685.7 393 728.3 402 771.2 401.7C814 401.3 857 391.7 878.5 386.8L900 382L900 601L878.5 601C857 601 814 601 771.2 601C728.3 601 685.7 601 642.8 601C600 601 557 601 514.2 601C471.3 601 428.7 601 385.8 601C343 601 300 601 257.2 601C214.3 601 171.7 601 128.8 601C86 601 43 601 21.5 601L0 601Z" fill="#c7c7ab"></path><path d="M0 422L21.5 427.8C43 433.7 86 445.3 128.8 441.5C171.7 437.7 214.3 418.3 257.2 411.2C300 404 343 409 385.8 408.3C428.7 407.7 471.3 401.3 514.2 402.3C557 403.3 600 411.7 642.8 416.5C685.7 421.3 728.3 422.7 771.2 429.7C814 436.7 857 449.3 878.5 455.7L900 462L900 601L878.5 601C857 601 814 601 771.2 601C728.3 601 685.7 601 642.8 601C600 601 557 601 514.2 601C471.3 601 428.7 601 385.8 601C343 601 300 601 257.2 601C214.3 601 171.7 601 128.8 601C86 601 43 601 21.5 601L0 601Z" fill="#9eb699"></path><path d="M0 446L21.5 454C43 462 86 478 128.8 482.7C171.7 487.3 214.3 480.7 257.2 479.2C300 477.7 343 481.3 385.8 487.2C428.7 493 471.3 501 514.2 497.8C557 494.7 600 480.3 642.8 469.2C685.7 458 728.3 450 771.2 451.8C814 453.7 857 465.3 878.5 471.2L900 477L900 601L878.5 601C857 601 814 601 771.2 601C728.3 601 685.7 601 642.8 601C600 601 557 601 514.2 601C471.3 601 428.7 601 385.8 601C343 601 300 601 257.2 601C214.3 601 171.7 601 128.8 601C86 601 43 601 21.5 601L0 601Z" fill="#70a492"></path><path d="M0 523L21.5 525.5C43 528 86 533 128.8 536C171.7 539 214.3 540 257.2 537C300 534 343 527 385.8 525.2C428.7 523.3 471.3 526.7 514.2 529.8C557 533 600 536 642.8 533.5C685.7 531 728.3 523 771.2 516.2C814 509.3 857 503.7 878.5 500.8L900 498L900 601L878.5 601C857 601 814 601 771.2 601C728.3 601 685.7 601 642.8 601C600 601 557 601 514.2 601C471.3 601 428.7 601 385.8 601C343 601 300 601 257.2 601C214.3 601 171.7 601 128.8 601C86 601 43 601 21.5 601L0 601Z" fill="#419093"></path><path d="M0 557L21.5 559.5C43 562 86 567 128.8 563C171.7 559 214.3 546 257.2 543.8C300 541.7 343 550.3 385.8 549.2C428.7 548 471.3 537 514.2 534.8C557 532.7 600 539.3 642.8 544.5C685.7 549.7 728.3 553.3 771.2 556.8C814 560.3 857 563.7 878.5 565.3L900 567L900 601L878.5 601C857 601 814 601 771.2 601C728.3 601 685.7 601 642.8 601C600 601 557 601 514.2 601C471.3 601 428.7 601 385.8 601C343 601 300 601 257.2 601C214.3 601 171.7 601 128.8 601C86 601 43 601 21.5 601L0 601Z" fill="#177994"></path></svg>