<svg id="visual" viewBox="0 0 900 600" width="900" height="600" xmlns="http://www.w3.org/2000/svg" xmlns:xlink="http://www.w3.org/1999/xlink" version="1.1"><g stroke-width="40" stroke-linejoin="bevel"><path d="M537 315L361 433L531 453Z" fill="#000" stroke="#dee8d8"></path><path d="M537 315L350 288L361 433Z" fill="#03595c" stroke="#dee8d8"></path><path d="M195 469L373 600L361 433Z" fill="#c1ced6" stroke="#dee8d8"></path><path d="M361 433L373 600L531 453Z" fill="#27676c" stroke="#dee8d8"></path><path d="M373 600L538 600L531 453Z" fill="#97afba" stroke="#dee8d8"></path><path d="M531 453L708 460L537 315Z" fill="#ebeef1" stroke="#dee8d8"></path><path d="M537 315L530 135L350 288Z" fill="#c1ced6" stroke="#dee8d8"></path><path d="M538 600L708 460L531 453Z" fill="#55838c" stroke="#dee8d8"></path><path d="M537 315L718 164L530 135Z" fill="#ebeef1" stroke="#dee8d8"></path><path d="M530 135L354 130L350 288Z" fill="#81a0ab" stroke="#dee8d8"></path><path d="M166 293L361 433L350 288Z" fill="#d6dee3" stroke="#dee8d8"></path><path d="M166 293L195 469L361 433Z" fill="#6b919c" stroke="#dee8d8"></path><path d="M708 460L720 316L537 315Z" fill="#ebeef1" stroke="#dee8d8"></path><path d="M186 168L166 293L350 288Z" fill="#c1ced6" stroke="#dee8d8"></path><path d="M354 130L186 168L350 288Z" fill="#6b919c" stroke="#dee8d8"></path><path d="M720 316L718 164L537 315Z" fill="#ebeef1" stroke="#dee8d8"></path><path d="M538 600L737 600L708 460Z" fill="#acbec8" stroke="#dee8d8"></path><path d="M708 460L900 440L720 316Z" fill="#97afba" stroke="#dee8d8"></path><path d="M720 316L900 319L718 164Z" fill="#c1ced6" stroke="#dee8d8"></path><path d="M0 448L165 600L195 469Z" fill="#d6dee3" stroke="#dee8d8"></path><path d="M195 469L165 600L373 600Z" fill="#81a0ab" stroke="#dee8d8"></path><path d="M530 135L369 0L354 130Z" fill="#03595c" stroke="#dee8d8"></path><path d="M354 130L190 0L186 168Z" fill="#c1ced6" stroke="#dee8d8"></path><path d="M703 0L533 0L530 135Z" fill="#ebeef1" stroke="#dee8d8"></path><path d="M533 0L369 0L530 135Z" fill="#6b919c" stroke="#dee8d8"></path><path d="M737 600L900 440L708 460Z" fill="#6b919c" stroke="#dee8d8"></path><path d="M900 440L900 319L720 316Z" fill="#c1ced6" stroke="#dee8d8"></path><path d="M718 164L703 0L530 135Z" fill="#27676c" stroke="#dee8d8"></path><path d="M900 0L703 0L718 164Z" fill="#ebeef1" stroke="#dee8d8"></path><path d="M166 293L0 448L195 469Z" fill="#55838c" stroke="#dee8d8"></path><path d="M0 306L0 448L166 293Z" fill="#03595c" stroke="#dee8d8"></path><path d="M0 133L166 293L186 168Z" fill="#97afba" stroke="#dee8d8"></path><path d="M0 133L0 306L166 293Z" fill="#97afba" stroke="#dee8d8"></path><path d="M369 0L190 0L354 130Z" fill="#ebeef1" stroke="#dee8d8"></path><path d="M737 600L900 600L900 440Z" fill="#27676c" stroke="#dee8d8"></path><path d="M900 319L900 149L718 164Z" fill="#55838c" stroke="#dee8d8"></path><path d="M0 448L0 600L165 600Z" fill="#acbec8" stroke="#dee8d8"></path><path d="M190 0L0 133L186 168Z" fill="#3f757d" stroke="#dee8d8"></path><path d="M900 149L900 0L718 164Z" fill="#6b919c" stroke="#dee8d8"></path><path d="M190 0L0 0L0 133Z" fill="#ebeef1" stroke="#dee8d8"></path></g></svg>